<svg xmlns="http://www.w3.org/2000/svg" style="display: none;">
  
  <!-- Ícone de Consultas (Estetoscópio) -->
  <symbol id="icon-stethoscope" viewBox="0 0 24 24">
    <path d="M19 8c-1.1 0-2 .9-2 2s.9 2 2 2 2-.9 2-2-.9-2-2-2zm0 3c-.55 0-1-.45-1-1s.45-1 1-1 1 .45 1 1-.45 1-1 1z"/>
    <path d="M16.5 13c-.55 0-1 .45-1 1v2.5c0 2.21-1.79 4-4 4s-4-1.79-4-4V14c0-.55-.45-1-1-1s-1 .45-1 1v2.5c0 3.04 2.28 5.55 5.21 5.93.09.01.18.02.27.02.09 0 .18-.01.27-.02 2.93-.38 5.21-2.89 5.21-5.93V14c0-.55-.45-1-1-1z"/>
    <path d="M8 3C6.34 3 5 4.34 5 6v6h2V6c0-.55.45-1 1-1s1 .45 1 1v6h2V6c0-1.66-1.34-3-3-3zm8 0c-1.66 0-3 1.34-3 3v6h2V6c0-.55.45-1 1-1s1 .45 1 1v6h2V6c0-1.66-1.34-3-3-3z"/>
  </symbol>

  <!-- Ícone de Vacinas (Seringa) -->
  <symbol id="icon-vaccine" viewBox="0 0 24 24">
    <path d="M19.5 4.5l-1-1-3.5 3.5-1-1L15.5 4.5 14 3l-1.5 1.5L11 3l-1.5 1.5L8 3 6.5 4.5l1.5 1.5-1 1-3.5-3.5-1 1 3.5 3.5-1 1L3.5 8 2 9.5 3.5 11 2 12.5 3.5 14l1.5-1.5 1 1L2.5 17l1 1 3.5-3.5 1 1L6.5 17 8 18.5 9.5 17l1.5 1.5L12.5 17l1.5 1.5L15.5 17l-1.5-1.5 1-1 3.5 3.5 1-1-3.5-3.5 1-1 1.5 1.5L20 12.5 18.5 11 20 9.5 18.5 8l-1.5 1.5-1-1 3.5-3.5zM7 14l-2-2 7-7 2 2-7 7z"/>
  </symbol>

  <!-- Ícone de Exames (Microscópio) -->
  <symbol id="icon-lab" viewBox="0 0 24 24">
    <path d="M13 13v-2h2v2h-2zm0 4v-2h2v2h-2zm4-8h-2V7h2v2zm0 4h-2v-2h2v2zm0 4h-2v-2h2v2zm-8 0v-2h2v2h-2zm0-4v-2h2v2H9zm0-4V7h2v2H9zm10-6H5c-1.1 0-2 .9-2 2v14c0 1.1.9 2 2 2h14c1.1 0 2-.9 2-2V5c0-1.1-.9-2-2-2zm0 16H5V5h14v14z"/>
  </symbol>

  <!-- Ícone de Raio-X -->
  <symbol id="icon-xray" viewBox="0 0 24 24">
    <path d="M19 3H5c-1.1 0-2 .9-2 2v14c0 1.1.9 2 2 2h14c1.1 0 2-.9 2-2V5c0-1.1-.9-2-2-2zm0 16H5V5h14v14z"/>
    <circle cx="12" cy="12" r="3"/>
    <path d="M12 7c-2.76 0-5 2.24-5 5s2.24 5 5 5 5-2.24 5-5-2.24-5-5-5zm0 8c-1.65 0-3-1.35-3-3s1.35-3 3-3 3 1.35 3 3-1.35 3-3 3z"/>
  </symbol>

  <!-- Ícone de Cirurgias (Cruz médica) -->
  <symbol id="icon-surgery" viewBox="0 0 24 24">
    <path d="M19 3H5c-1.1 0-1.99.9-1.99 2L3 19c0 1.1.9 2 2 2h14c1.1 0 2-.9 2-2V5c0-1.1-.9-2-2-2zm-1 11h-4v4h-4v-4H6v-4h4V6h4v4h4v4z"/>
  </symbol>

  <!-- Ícone de Banho e Tosa (Chuveiro) -->
  <symbol id="icon-bath" viewBox="0 0 24 24">
    <path d="M9 17c0 .55-.45 1-1 1s-1-.45-1-1 .45-1 1-1 1 .45 1 1zm3-1c-.55 0-1 .45-1 1s.45 1 1 1 1-.45 1-1-.45-1-1-1zm4 0c-.55 0-1 .45-1 1s.45 1 1 1 1-.45 1-1-.45-1-1-1zm3-4v2H5v-2c0-2.76 2.24-5 5-5h.5l1.5-3h2l-1.5 3h.5c2.76 0 5 2.24 5 5zM7 19c-.55 0-1 .45-1 1s.45 1 1 1 1-.45 1-1-.45-1-1-1zm5 0c-.55 0-1 .45-1 1s.45 1 1 1 1-.45 1-1-.45-1-1-1zm5 0c-.55 0-1 .45-1 1s.45 1 1 1 1-.45 1-1-.45-1-1-1z"/>
  </symbol>

  <!-- Ícone de Hotelzinho (Casa com coração) -->
  <symbol id="icon-hotel" viewBox="0 0 24 24">
    <path d="M12 3L2 12h3v8h14v-8h3L12 3zm0 2.84L18 11v7h-3v-5h-2v5H7v-7l5-5.16z"/>
    <path d="M12 11c-1.1 0-2 .9-2 2s.9 2 2 2 2-.9 2-2-.9-2-2-2z"/>
  </symbol>

  <!-- Ícone de Pet Shop (Carrinho de compras) -->
  <symbol id="icon-shop" viewBox="0 0 24 24">
    <path d="M7 18c-1.1 0-1.99.9-1.99 2S5.9 22 7 22s2-.9 2-2-.9-2-2-2zM1 2v2h2l3.6 7.59-1.35 2.45c-.16.28-.25.61-.25.96 0 1.1.9 2 2 2h12v-2H7.42c-.14 0-.25-.11-.25-.25l.03-.12.9-1.63h7.45c.75 0 1.41-.41 1.75-1.03l3.58-6.49c.08-.14.12-.31.12-.48 0-.55-.45-1-1-1H5.21l-.94-2H1zm16 16c-1.1 0-1.99.9-1.99 2s.89 2 1.99 2 2-.9 2-2-.9-2-2-2z"/>
  </symbol>

  <!-- Ícone de Localização -->
  <symbol id="icon-location" viewBox="0 0 24 24">
    <path d="M12 2C8.13 2 5 5.13 5 9c0 5.25 7 13 7 13s7-7.75 7-13c0-3.87-3.13-7-7-7zm0 9.5c-1.38 0-2.5-1.12-2.5-2.5s1.12-2.5 2.5-2.5 2.5 1.12 2.5 2.5-1.12 2.5-2.5 2.5z"/>
  </symbol>

  <!-- Ícone de Telefone -->
  <symbol id="icon-phone" viewBox="0 0 24 24">
    <path d="M6.62 10.79c1.44 2.83 3.76 5.14 6.59 6.59l2.2-2.2c.27-.27.67-.36 1.02-.24 1.12.37 2.33.57 3.57.57.55 0 1 .45 1 1V20c0 .55-.45 1-1 1-9.39 0-17-7.61-17-17 0-.55.45-1 1-1h3.5c.55 0 1 .45 1 1 0 1.25.2 2.45.57 3.57.11.35.03.74-.25 1.02l-2.2 2.2z"/>
  </symbol>

  <!-- Ícone de Instagram -->
  <symbol id="icon-instagram" viewBox="0 0 24 24">
    <path d="M7.8 2h8.4C19.4 2 22 4.6 22 7.8v8.4a5.8 5.8 0 0 1-5.8 5.8H7.8C4.6 22 2 19.4 2 16.2V7.8A5.8 5.8 0 0 1 7.8 2m-.2 2A3.6 3.6 0 0 0 4 7.6v8.8C4 18.39 5.61 20 7.6 20h8.8a3.6 3.6 0 0 0 3.6-3.6V7.6C20 5.61 18.39 4 16.4 4H7.6m9.65 1.5a1.25 1.25 0 0 1 1.25 1.25A1.25 1.25 0 0 1 17.25 8 1.25 1.25 0 0 1 16 6.75a1.25 1.25 0 0 1 1.25-1.25M12 7a5 5 0 0 1 5 5 5 5 0 0 1-5 5 5 5 0 0 1-5-5 5 5 0 0 1 5-5m0 2a3 3 0 0 0-3 3 3 3 0 0 0 3 3 3 3 0 0 0 3-3 3 3 0 0 0-3-3z"/>
  </symbol>

  <!-- Ícone de Relógio (FAQ) -->
  <symbol id="icon-clock" viewBox="0 0 24 24">
    <path d="M11.99 2C6.47 2 2 6.48 2 12s4.47 10 9.99 10C17.52 22 22 17.52 22 12S17.52 2 11.99 2zM12 20c-4.42 0-8-3.58-8-8s3.58-8 8-8 8 3.58 8 8-3.58 8-8 8z"/>
    <path d="M12.5 7H11v6l5.25 3.15.75-1.23-4.5-2.67z"/>
  </symbol>

  <!-- Ícone de Cartão de Crédito (Pagamento) -->
  <symbol id="icon-payment" viewBox="0 0 24 24">
    <path d="M20 4H4c-1.11 0-1.99.89-1.99 2L2 18c0 1.11.89 2 2 2h16c1.11 0 2-.89 2-2V6c0-1.11-.89-2-2-2zm0 14H4v-6h16v6zm0-10H4V6h16v2z"/>
  </symbol>

  <!-- Ícone de Emergência (Sirene) -->
  <symbol id="icon-emergency" viewBox="0 0 24 24">
    <path d="M12 2L4 5v6.09c0 5.05 3.41 9.76 8 10.91 4.59-1.15 8-5.86 8-10.91V5l-8-3zm6 9.09c0 4-2.55 7.7-6 8.83-3.45-1.13-6-4.82-6-8.83V6.31l6-2.12 6 2.12v4.78z"/>
    <path d="M11 7h2v6h-2zm0 8h2v2h-2z"/>
  </symbol>

  <!-- Ícone de Perguntas (FAQ) -->
  <symbol id="icon-faq" viewBox="0 0 24 24">
    <path d="M12 2C6.48 2 2 6.48 2 12s4.48 10 10 10 10-4.48 10-10S17.52 2 12 2zm1 17h-2v-2h2v2zm2.07-7.75l-.9.92C13.45 12.9 13 13.5 13 15h-2v-.5c0-1.1.45-2.1 1.17-2.83l1.24-1.26c.37-.36.59-.86.59-1.41 0-1.1-.9-2-2-2s-2 .9-2 2H8c0-2.21 1.79-4 4-4s4 1.79 4 4c0 .88-.36 1.68-.93 2.25z"/>
  </symbol>

  <!-- Ícone de Câmera (Galeria) -->
  <symbol id="icon-camera" viewBox="0 0 24 24">
    <circle cx="12" cy="12" r="3.2"/>
    <path d="M9 2L7.17 4H4c-1.1 0-2 .9-2 2v12c0 1.1.9 2 2 2h16c1.1 0 2-.9 2-2V6c0-1.1-.9-2-2-2h-3.17L15 2H9zm3 15c-2.76 0-5-2.24-5-5s2.24-5 5-5 5 2.24 5 5-2.24 5-5 5z"/>
  </symbol>

  <!-- Ícone de Estrela (Avaliações) -->
  <symbol id="icon-star" viewBox="0 0 24 24">
    <path d="M12 17.27L18.18 21l-1.64-7.03L22 9.24l-7.19-.61L12 2 9.19 8.63 2 9.24l5.46 4.73L5.82 21z"/>
  </symbol>

</svg>
