<svg xmlns="http://www.w3.org/2000/svg" style="display: none;">
  
  <symbol id="icon-stethoscope" viewBox="0 0 24 24">
    <path d="M19 8c-1.1 0-2 .9-2 2s.9 2 2 2 2-.9 2-2-.9-2-2-2zm0 3c-.55 0-1-.45-1-1s.45-1 1-1 1 .45 1 1-.45 1-1 1z"/>
    <path d="M16.5 13c-.55 0-1 .45-1 1v2.5c0 2.21-1.79 4-4 4s-4-1.79-4-4V14c0-.55-.45-1-1-1s-1 .45-1 1v2.5c0 3.04 2.28 5.55 5.21 5.93.09.01.18.02.27.02.09 0 .18-.01.27-.02 2.93-.38 5.21-2.89 5.21-5.93V14c0-.55-.45-1-1-1z"/>
    <path d="M8 3C6.34 3 5 4.34 5 6v6h2V6c0-.55.45-1 1-1s1 .45 1 1v6h2V6c0-1.66-1.34-3-3-3zm8 0c-1.66 0-3 1.34-3 3v6h2V6c0-.55.45-1 1-1s1 .45 1 1v6h2V6c0-1.66-1.34-3-3-3z"/>
  </symbol>

  <symbol id="icon-vaccine" viewBox="0 0 48 48">
    <path fill-rule="evenodd" clip-rule="evenodd" d="M6.81818 12.8638C6.36631 13.3156 6.36631 14.0483 6.81818 14.5001C7.27005 14.952 8.00267 14.952 8.45454 14.5001L9.27324 13.6814L13.3636 17.7719L10.0909 21.0447C9.63902 21.4966 9.63902 22.2292 10.0909 22.6811C10.5428 23.133 11.2754 23.133 11.7272 22.6811L13.3632 21.0451L16.3181 24H8.37441C7.74469 24 7.14076 24.2528 6.69547 24.7028C6.25019 25.1528 6.00003 25.7632 6.00003 26.3996V29.9983C5.99395 32.7931 6.93225 35.5063 8.65965 37.6887C10.3871 39.8712 12.8 41.3922 15.4992 42C18.1987 41.3925 20.612 39.8717 22.3397 37.6892C23.5568 36.1518 24.3822 34.351 24.7617 32.4438L27.2727 34.9549C28.9502 36.6325 31.4016 37.0645 33.4777 36.2509L34.6362 37.4095C35.242 38.0153 36.1002 38.215 36.8724 38.0086L39.5455 40.6818C39.9974 41.1337 40.73 41.1337 41.1818 40.6818C41.6337 40.2299 41.6337 39.4973 41.1818 39.0454L38.5083 36.3718C38.7142 35.5999 38.5144 34.7422 37.9089 34.1367L36.7504 32.9782C36.9538 32.4591 37.0794 31.9166 37.1271 31.3686C37.163 30.9555 37.1548 30.5392 37.1022 30.1275C36.9457 28.9009 36.3965 27.7148 35.4545 26.7728L21.545 12.863L23.1818 11.2263C23.6336 10.7744 23.6336 10.0418 23.1818 9.58989C22.7299 9.13801 21.9973 9.13801 21.5454 9.58989L18.2727 12.8627L14.1823 8.77223L15 7.95456C15.4518 7.50268 15.4518 6.77004 15 6.31816C14.5481 5.86628 13.8155 5.86628 13.3636 6.31816L6.81818 12.8638ZM26.5467 31.4003L31.9 26.0468L20.1308 14.2773L14.7774 19.6308L19.1465 24H22.6256C23.2553 24 23.8592 24.2528 24.3045 24.7028C24.7498 25.1528 25 25.7632 25 26.3996V29.8536L26.5467 31.4003ZM16.8585 14.2769L12.7681 10.1865L10.6874 12.2672L14.7778 16.3576L16.8585 14.2769ZM35.6707 34.7269C35.6011 34.8043 35.529 34.8804 35.4545 34.9549C35.3799 35.0295 35.3039 35.1016 35.2264 35.1712L36.0504 35.9952C36.1731 36.1179 36.372 36.1179 36.4947 35.9952C36.6174 35.8725 36.6174 35.6736 36.4947 35.5509L35.6707 34.7269ZM33.5364 27.6832L34.0403 28.1872C34.6458 28.7927 35.0033 29.5523 35.1128 30.3398C35.1522 30.6234 35.1595 30.9105 35.1346 31.1954C35.1032 31.5541 35.0209 31.9092 34.8876 32.2489L32.7486 34.3879C31.3898 34.9211 29.785 34.6387 28.6869 33.5406L28.183 33.0367L33.5364 27.6832ZM17 29C17 28.4477 16.5523 28 16 28C15.4477 28 15 28.4477 15 29V31H13C12.4477 31 12 31.4477 12 32C12 32.5522 12.4477 33 13 33H15V35C15 35.5522 15.4477 36 16 36C16.5523 36 17 35.5522 17 35V33H19C19.5523 33 20 32.5522 20 32C20 31.4477 19.5523 31 19 31H17V29Z"/>
  </symbol>

  <symbol id="icon-lab" viewBox="0 0 24 24">
    <path d="M13 13v-2h2v2h-2zm0 4v-2h2v2h-2zm4-8h-2V7h2v2zm0 4h-2v-2h2v2zm0 4h-2v-2h2v2zm-8 0v-2h2v2h-2zm0-4v-2h2v2H9zm0-4V7h2v2H9zm10-6H5c-1.1 0-2 .9-2 2v14c0 1.1.9 2 2 2h14c1.1 0 2-.9 2-2V5c0-1.1-.9-2-2-2zm0 16H5V5h14v14z"/>
  </symbol>

  <symbol id="icon-xray" viewBox="0 0 24 24">
    <path d="M19 3H5c-1.1 0-2 .9-2 2v14c0 1.1.9 2 2 2h14c1.1 0 2-.9 2-2V5c0-1.1-.9-2-2-2zm0 16H5V5h14v14z"/>
    <circle cx="12" cy="12" r="3"/>
    <path d="M12 7c-2.76 0-5 2.24-5 5s2.24 5 5 5 5-2.24 5-5-2.24-5-5-5zm0 8c-1.65 0-3-1.35-3-3s1.35-3 3-3 3 1.35 3 3-1.35 3-3 3z"/>
  </symbol>

  <symbol id="icon-surgery" viewBox="0 0 24 24">
    <path d="M19 3H5c-1.1 0-1.99.9-1.99 2L3 19c0 1.1.9 2 2 2h14c1.1 0 2-.9 2-2V5c0-1.1-.9-2-2-2zm-1 11h-4v4h-4v-4H6v-4h4V6h4v4h4v4z"/>
  </symbol>

  <symbol id="icon-bath" viewBox="0 0 24 24">
    <path d="M9 17c0 .55-.45 1-1 1s-1-.45-1-1 .45-1 1-1 1 .45 1 1zm3-1c-.55 0-1 .45-1 1s.45 1 1 1 1-.45 1-1-.45-1-1-1zm4 0c-.55 0-1 .45-1 1s.45 1 1 1 1-.45 1-1-.45-1-1-1zm3-4v2H5v-2c0-2.76 2.24-5 5-5h.5l1.5-3h2l-1.5 3h.5c2.76 0 5 2.24 5 5zM7 19c-.55 0-1 .45-1 1s.45 1 1 1 1-.45 1-1-.45-1-1-1zm5 0c-.55 0-1 .45-1 1s.45 1 1 1 1-.45 1-1-.45-1-1-1zm5 0c-.55 0-1 .45-1 1s.45 1 1 1 1-.45 1-1-.45-1-1-1z"/>
  </symbol>

  <symbol id="icon-hotel" viewBox="0 0 24 24">
    <path d="M12 3L2 12h3v8h14v-8h3L12 3zm0 2.84L18 11v7h-3v-5h-2v5H7v-7l5-5.16z"/>
    <path d="M12 11c-1.1 0-2 .9-2 2s.9 2 2 2 2-.9 2-2-.9-2-2-2z"/>
  </symbol>

  <symbol id="icon-shop" viewBox="0 0 24 24">
    <path d="M7 18c-1.1 0-1.99.9-1.99 2S5.9 22 7 22s2-.9 2-2-.9-2-2-2zM1 2v2h2l3.6 7.59-1.35 2.45c-.16.28-.25.61-.25.96 0 1.1.9 2 2 2h12v-2H7.42c-.14 0-.25-.11-.25-.25l.03-.12.9-1.63h7.45c.75 0 1.41-.41 1.75-1.03l3.58-6.49c.08-.14.12-.31.12-.48 0-.55-.45-1-1-1H5.21l-.94-2H1zm16 16c-1.1 0-1.99.9-1.99 2s.89 2 1.99 2 2-.9 2-2-.9-2-2-2z"/>
  </symbol>

  <symbol id="icon-location" viewBox="0 0 24 24">
    <path d="M12 2C8.13 2 5 5.13 5 9c0 5.25 7 13 7 13s7-7.75 7-13c0-3.87-3.13-7-7-7zm0 9.5c-1.38 0-2.5-1.12-2.5-2.5s1.12-2.5 2.5-2.5 2.5 1.12 2.5 2.5-1.12 2.5-2.5 2.5z"/>
  </symbol>

  <symbol id="icon-phone" viewBox="0 0 24 24">
    <path d="M6.62 10.79c1.44 2.83 3.76 5.14 6.59 6.59l2.2-2.2c.27-.27.67-.36 1.02-.24 1.12.37 2.33.57 3.57.57.55 0 1 .45 1 1V20c0 .55-.45 1-1 1-9.39 0-17-7.61-17-17 0-.55.45-1 1-1h3.5c.55 0 1 .45 1 1 0 1.25.2 2.45.57 3.57.11.35.03.74-.25 1.02l-2.2 2.2z"/>
  </symbol>

  <symbol id="icon-instagram" viewBox="0 0 24 24">
    <path d="M7.8 2h8.4C19.4 2 22 4.6 22 7.8v8.4a5.8 5.8 0 0 1-5.8 5.8H7.8C4.6 22 2 19.4 2 16.2V7.8A5.8 5.8 0 0 1 7.8 2m-.2 2A3.6 3.6 0 0 0 4 7.6v8.8C4 18.39 5.61 20 7.6 20h8.8a3.6 3.6 0 0 0 3.6-3.6V7.6C20 5.61 18.39 4 16.4 4H7.6m9.65 1.5a1.25 1.25 0 0 1 1.25 1.25A1.25 1.25 0 0 1 17.25 8 1.25 1.25 0 0 1 16 6.75a1.25 1.25 0 0 1 1.25-1.25M12 7a5 5 0 0 1 5 5 5 5 0 0 1-5 5 5 5 0 0 1-5-5 5 5 0 0 1 5-5m0 2a3 3 0 0 0-3 3 3 3 0 0 0 3 3 3 3 0 0 0 3-3 3 3 0 0 0-3-3z"/>
  </symbol>

  <symbol id="icon-clock" viewBox="0 0 24 24">
    <path d="M11.99 2C6.47 2 2 6.48 2 12s4.47 10 9.99 10C17.52 22 22 17.52 22 12S17.52 2 11.99 2zM12 20c-4.42 0-8-3.58-8-8s3.58-8 8-8 8 3.58 8 8-3.58 8-8 8z"/>
    <path d="M12.5 7H11v6l5.25 3.15.75-1.23-4.5-2.67z"/>
  </symbol>

  <symbol id="icon-payment" viewBox="0 0 24 24">
    <path d="M20 4H4c-1.11 0-1.99.89-1.99 2L2 18c0 1.11.89 2 2 2h16c1.11 0 2-.89 2-2V6c0-1.11-.89-2-2-2zm0 14H4v-6h16v6zm0-10H4V6h16v2z"/>
  </symbol>

  <symbol id="icon-emergency" viewBox="0 0 24 24">
    <path d="M12 2L4 5v6.09c0 5.05 3.41 9.76 8 10.91 4.59-1.15 8-5.86 8-10.91V5l-8-3zm6 9.09c0 4-2.55 7.7-6 8.83-3.45-1.13-6-4.82-6-8.83V6.31l6-2.12 6 2.12v4.78z"/>
    <path d="M11 7h2v6h-2zm0 8h2v2h-2z"/>
  </symbol>

  <symbol id="icon-camera" viewBox="0 0 24 24">
    <circle cx="12" cy="12" r="3.2"/>
    <path d="M9 2L7.17 4H4c-1.1 0-2 .9-2 2v12c0 1.1.9 2 2 2h16c1.1 0 2-.9 2-2V6c0-1.1-.9-2-2-2h-3.17L15 2H9zm3 15c-2.76 0-5-2.24-5-5s2.24-5 5-5 5 2.24 5 5-2.24 5-5 5z"/>
  </symbol>

  <symbol id="icon-star" viewBox="0 0 24 24">
    <path d="M12 17.27L18.18 21l-1.64-7.03L22 9.24l-7.19-.61L12 2 9.19 8.63 2 9.24l5.46 4.73L5.82 21z"/>
  </symbol>

</svg>
